<svg width="24" height="24" viewBox="0 0 24 24" fill="none" xmlns="http://www.w3.org/2000/svg">
<mask id="mask0_232_4075" style="mask-type:alpha" maskUnits="userSpaceOnUse" x="0" y="0" width="24" height="24">
<path d="M22.748 7.08404H20.748V3.19604H15.856V1.19604H22.748V7.08404Z" fill="#0D0E0E"/>
<path d="M3.224 7.08404H1.224V1.19604H8.112V3.19604H3.224V7.08404Z" fill="#0D0E0E"/>
<path d="M22.748 22.7961H15.856V20.7961H20.748V16.9041H22.748V22.7961Z" fill="#0D0E0E"/>
<path d="M8.112 22.7961H1.224V16.9041H3.224V20.7961H8.112V22.7961Z" fill="#0D0E0E"/>
<path d="M19.66 11.2201H12.712V4.25208H19.66V11.2201V11.2201ZM14.712 9.22007H17.66V6.24807H14.712V9.22007Z" fill="#0D0E0E"/>
<path d="M11.236 11.2201H4.28796V4.25208H11.236V11.2201ZM6.28796 9.22007H9.23596V6.24807H6.28796V9.22007V9.22007Z" fill="#0D0E0E"/>
<path d="M11.176 19.7921H4.22803V12.8201H11.176V19.7921ZM6.22803 17.7921H9.17603V14.8201H6.22803V17.7921V17.7921Z" fill="#0D0E0E"/>
<path d="M15.02 12.832H12.708V15.148H15.02V12.832Z" fill="#0D0E0E"/>
<path d="M15.02 17.468H12.708V19.784H15.02V17.468Z" fill="#0D0E0E"/>
<path d="M17.328 15.1481H15.016V17.4641H17.328V15.1481Z" fill="#0D0E0E"/>
<path d="M19.644 17.464H17.332V19.78H19.644V17.464Z" fill="#0D0E0E"/>
<path d="M19.644 12.832H17.332V15.148H19.644V12.832Z" fill="#0D0E0E"/>
</mask>
<g mask="url(#mask0_232_4075)">
<rect width="24" height="24" fill="white"/>
</g>
</svg>
