<svg width="24" height="24" viewBox="0 0 24 24" fill="none" xmlns="http://www.w3.org/2000/svg">
<mask id="mask0_232_4095" style="mask-type:alpha" maskUnits="userSpaceOnUse" x="1" y="1" width="22" height="22">
<path fill-rule="evenodd" clip-rule="evenodd" d="M20.6628 5.5019C20.1021 4.7726 19.4577 4.11167 18.7428 3.5327C16.8369 2.00454 14.4657 1.17419 12.0228 1.1795C10.3982 1.17412 8.7935 1.53794 7.33002 2.24349C5.86654 2.94903 4.58248 3.97787 3.57482 5.2523C2.0562 7.16787 1.22835 9.5398 1.22522 11.9843V22.7843H12.036C14.0406 22.7819 16.0049 22.2216 17.7091 21.1661C19.4134 20.1107 20.7902 18.6018 21.6856 16.8083C22.581 15.0148 22.9595 13.0075 22.7789 11.0111C22.5983 9.0147 21.8656 7.10796 20.6628 5.5043V5.5019ZM12.036 20.7791H3.22562V11.9843C3.22892 9.991 3.9055 8.05726 5.14562 6.4967C5.8652 5.59182 6.75638 4.83793 7.76802 4.27829C8.77966 3.71865 9.89185 3.36428 11.0408 3.2355C12.1897 3.10673 13.3527 3.20609 14.4632 3.52788C15.5736 3.84968 16.6096 4.38757 17.5116 5.1107C18.0869 5.58159 18.6074 6.11575 19.0632 6.7031C20.0435 8.00926 20.6409 9.56254 20.7883 11.189C20.9357 12.8154 20.6275 14.4508 19.898 15.912C19.1686 17.3731 18.0467 18.6023 16.6582 19.462C15.2696 20.3216 13.6691 20.7777 12.036 20.7791ZM16.0309 8.86401H7.36086V10.8644H16.0309V8.86401ZM7.36086 13.105H16.0309V15.1054H7.36086V13.105Z" fill="#282B3E"/>
</mask>
<g mask="url(#mask0_232_4095)">
<rect width="24" height="24" fill="white"/>
</g>
</svg>
