<svg width="305" height="50" viewBox="0 0 305 50" fill="none" xmlns="http://www.w3.org/2000/svg">
<g clip-path="url(#clip0_20_140)">
<path d="M51.1336 39.4391C49.4033 43.3174 47.136 46.7184 44.5107 49.0453C44.0931 48.5083 42.8998 47.4344 42.2434 46.957C44.5704 45.1074 46.599 42.5418 48.031 39.4391H42.8401V36.9332H49.105C49.463 35.9188 49.821 34.9045 50.1193 33.8305L52.9833 34.4272C52.7446 35.2625 52.4463 36.0978 52.148 36.9332H62.7685V39.4391H51.1336ZM45.5847 35.7995H42.9594V31.1456H51.611C51.432 30.6086 51.1933 30.0119 50.9547 29.5346L53.7589 28.7589C54.1169 29.4749 54.5346 30.4296 54.8329 31.1456H62.5298V35.7995H59.7852V33.5919H45.5847V35.7995ZM60.3222 50C60.0835 49.5823 59.7852 49.105 59.4272 48.568C50.6563 49.2243 49.463 49.3437 48.568 49.7017C48.389 49.1647 47.9714 47.9117 47.673 47.1957C48.21 47.0764 48.6873 46.6587 49.284 45.883C50 45.1671 51.8496 42.5418 53.1623 39.7971L55.9666 40.6324C54.7136 42.8401 53.2816 44.9881 51.8496 46.778L57.8759 46.42C57.1599 45.3461 56.3246 44.2721 55.6683 43.3771L57.9356 42.1241C59.4272 44.0931 61.6945 46.8377 62.7685 48.5083L60.3222 50Z" fill="#282B3E"/>
<path d="M72.0764 35.6802H76.1336V38.1862H72.0764V38.9618C73.21 39.8568 75.4177 41.8258 76.0143 42.3628L74.463 44.6301C73.926 43.9141 72.9714 42.8401 72.0764 41.8854V50H69.3914V42.0644C68.3771 44.0931 67.2434 45.9427 65.9904 47.2554C65.6921 46.42 65.0358 45.2864 64.6181 44.6301C66.2291 43.0788 67.8998 40.5131 68.9141 38.1862H65.1551V35.6802H69.3914V32.9356C68.1384 33.1742 66.8854 33.4129 65.6921 33.5322C65.5728 32.9356 65.2148 31.9809 64.9165 31.4439C68.1981 30.9666 71.778 30.1313 73.9857 29.1169L75.895 31.1456C74.7613 31.6229 73.5083 31.9809 72.136 32.3389V35.6802H72.0764ZM80.1313 44.3317H77.4463V31.6826H80.1313V44.3317ZM84.9045 29.3556V46.7184C84.9045 48.3294 84.6062 49.0453 83.6515 49.463C82.7566 49.9403 81.2649 50 79.1766 50C79.0573 49.2243 78.6396 47.9714 78.2816 47.1957C79.7733 47.2554 81.2052 47.2554 81.6826 47.2554C82.1002 47.2554 82.2792 47.136 82.2792 46.6587V29.3556H84.9045Z" fill="#282B3E"/>
<path d="M102.864 41.2291C104.117 42.9594 106.205 44.5107 108.234 45.2267C107.995 45.4057 107.697 45.7637 107.518 46.0621C105.31 45.1671 103.043 43.2578 101.73 41.2291H94.2124C92.8401 43.3771 90.5131 45.4057 88.3652 46.42C88.1862 46.1217 87.8878 45.7637 87.5895 45.5847C89.5585 44.7494 91.6468 43.0788 93.0191 41.2291H87.8282V40.2745H92.4224V32.6969H88.8425V31.7422H92.4224V29.2959H93.4964V31.7422H102.327V29.2959H103.401V31.7422H106.981V32.6969H103.401V40.2148H107.936V41.1695H102.864V41.2291ZM98.389 48.1504H106.384V49.105H89.4391V48.1504H97.315V45.2267H92.3031V44.2721H97.315V42.0644H98.389V44.2721H103.461V45.2267H98.389V48.1504ZM93.4964 34.5465H102.327V32.6969H93.4964V34.5465ZM93.4964 37.3508H102.327V35.4415H93.4964V37.3508ZM93.4964 40.2148H102.327V38.2458H93.4964V40.2148Z" fill="#282B3E"/>
<path d="M121.539 29.5346C121.36 29.7733 121.241 30.0716 121.002 30.2506C123.21 32.8759 127.387 35.5609 130.847 36.6945C130.549 36.9332 130.251 37.3508 130.072 37.6492C126.79 36.3962 122.792 33.7112 120.346 31.0263C117.959 33.8902 114.379 36.3365 110.68 37.7088C110.501 37.4105 110.203 36.9332 109.964 36.6945C114.2 35.2625 118.377 32.3986 120.525 29.0573L121.539 29.5346ZM120.943 47.9714H130.191V48.9857H110.8V47.9714H119.869V41.7064H111.754V40.6921H119.869V37.1718H114.797V36.1575H126.193V37.1718H121.002V40.6921H129.296V41.7064H121.002V47.9714H120.943ZM114.797 42.6611C115.692 43.9737 116.647 45.7637 117.005 46.8974L116.05 47.315C115.692 46.1814 114.797 44.3317 113.902 43.0191L114.797 42.6611ZM123.389 46.957C124.224 45.8234 125.358 43.9141 125.895 42.6014L126.969 43.0191C126.134 44.4511 125.06 46.1814 124.165 47.315L123.389 46.957Z" fill="#282B3E"/>
<path d="M135.621 32.1599C135.084 33.2339 134.487 34.1885 133.831 34.9642C133.652 34.8449 133.174 34.5465 132.936 34.4272C134.129 33.1146 135.084 31.2649 135.621 29.2363L136.635 29.4153C136.456 30.0119 136.277 30.6086 136.038 31.2053H142.482V32.1002H138.663C139.141 32.8759 139.499 33.7709 139.678 34.3079L138.723 34.6062C138.544 33.9499 138.067 32.9356 137.589 32.1002H135.621V32.1599ZM142.9 33.8902C143.258 34.4272 143.616 35.0835 143.795 35.6205H152.148V39.2005H151.074V36.5752H135.442V39.2005H134.368V35.6205H142.601C142.422 35.1432 142.124 34.5465 141.885 34.0692L142.9 33.8902ZM137.828 44.3317H150.597V49.642H149.523V48.8664H137.828V49.7017H136.754V38.2458H149.403V42.4821H137.828V44.3317ZM137.828 41.5275H148.329V39.1408H137.828V41.5275ZM137.828 47.9714H149.523V45.2864H137.828V47.9714ZM152.745 31.3246V32.2196H148.21C148.747 32.9356 149.344 33.8306 149.523 34.4272L148.628 34.7852C148.329 34.0692 147.733 33.0549 147.076 32.2196H145.048C144.69 32.9952 144.212 33.7112 143.735 34.2482C143.556 34.0692 143.079 33.8306 142.84 33.7112C143.854 32.6372 144.57 31.0263 144.988 29.3556L146.062 29.5346C145.883 30.1313 145.704 30.7279 145.465 31.2649H152.745V31.3246Z" fill="#282B3E"/>
<path d="M162.291 44.9284C159.905 45.7637 157.399 46.599 155.489 47.2554L155.191 46.1217C156.086 45.8234 157.16 45.4654 158.413 45.1074V38.5442H155.668V37.5298H158.413V32.0406H155.43V31.0263H162.172V32.0406H159.427V37.5298H161.873V38.5442H159.427V44.7494C160.263 44.4511 161.217 44.2124 162.112 43.8544L162.291 44.9284ZM175.955 47.9714V48.9857H161.336V47.9714H168.556V44.3317H163.126V43.3174H168.556V40.2148H163.484V30.3699H174.821V40.1551H169.63V43.2578H175.179V44.2721H169.63V47.9117H175.955V47.9714ZM164.499 34.7852H168.616V31.3843H164.499V34.7852ZM164.499 39.2005H168.616V35.7399H164.499V39.2005ZM173.747 31.3843H169.57V34.7852H173.747V31.3843ZM173.747 35.7399H169.57V39.2005H173.747V35.7399Z" fill="#282B3E"/>
<path d="M68.6158 20.2267V18.8544C67.9594 19.6301 66.8854 20.5251 65.0358 20.5251C62.8878 20.5251 61.0979 19.1527 61.0979 16.8258C61.0979 13.9618 63.7828 12.9475 66.3484 12.6492L67.3628 12.5298C68.3771 12.4702 68.7351 11.8735 68.7351 11.2172C68.7351 10.3819 67.9594 9.7852 66.8258 9.7852C65.4535 9.7852 64.2005 10.7399 63.7232 11.5155L62.1718 9.66587C63.1265 8.41288 64.7971 7.57756 66.9451 7.57756C69.7494 7.57756 71.42 9.00954 71.42 11.4558V20.1671H68.6158V20.2267ZM68.6158 14.3795L66.7661 14.6181C65.1551 14.7971 63.7232 15.3938 63.7232 16.7661C63.7232 17.7208 64.5585 18.3771 65.6325 18.3771C66.8854 18.3771 67.9594 17.5418 68.6158 16.7064V14.3795Z" fill="#282B3E"/>
<path d="M76.4916 20.2267H73.8067V7.93557H76.4916V9.30788C77.4463 8.41289 78.9379 7.63724 80.4893 7.63724C81.9212 7.63724 83.9499 8.47256 83.9499 11.4559V20.1671H81.2649V12.2315C81.2649 11.0382 80.7876 9.96421 79.4749 9.96421C78.4606 9.96421 77.148 10.8592 76.4916 11.3962V20.2267Z" fill="#282B3E"/>
<path d="M93.4964 7.93556H96.1814V20.2267H93.3771V18.9141C92.6014 19.6301 91.4081 20.5251 89.8568 20.5251C88.2458 20.5251 86.0979 19.6897 86.0979 16.5871V7.93556H88.7828V15.6921C88.7828 17.1241 89.3795 18.1384 90.6921 18.1384C91.7661 18.1384 92.7208 17.4821 93.4964 16.5871V7.93556Z" fill="#282B3E"/>
<path d="M101.85 20.2267H99.1647V4.11694L101.85 1.37231V20.2267Z" fill="#282B3E"/>
<path d="M106.265 2.4463C107.16 2.4463 107.995 3.22196 107.995 4.17661C107.995 5.13127 107.22 5.90692 106.265 5.90692C105.31 5.90692 104.535 5.13127 104.535 4.17661C104.535 3.22196 105.31 2.4463 106.265 2.4463ZM107.697 20.2267H104.893V7.93556H107.697V20.2267Z" fill="#282B3E"/>
<path d="M116.289 10.2029H113.723V20.2267H110.979V10.2029H109.308V7.93556H110.979V5.4296C110.979 3.40096 112.291 1.55132 114.857 1.55132C116.05 1.55132 117.064 1.90931 117.661 2.20764L116.826 4.29594C116.468 4.05728 115.871 3.87828 115.334 3.87828C114.499 3.87828 113.783 4.53461 113.783 5.54893V7.93556H117.005L116.289 10.2029Z" fill="#282B3E"/>
<path d="M119.511 14.8568C119.511 16.8258 120.943 18.2578 122.673 18.2578C123.926 18.2578 125.298 17.4224 125.835 16.3484L127.506 17.9594C126.492 19.3914 124.582 20.5847 122.375 20.5847C118.854 20.5847 116.706 17.9594 116.706 14.1408C116.706 10.5012 119.033 7.6969 122.494 7.6969C125.776 7.6969 128.043 9.84487 127.924 14.8568H119.511ZM125.06 12.7685C125.06 11.2769 124.105 9.84487 122.434 9.84487C120.823 9.84487 119.63 11.3365 119.57 12.7685H125.06Z" fill="#282B3E"/>
<path d="M45.5847 20.2267H42.6014V3.22195H45.8234L50.8353 11.5752H50.895L55.9069 3.22195H59.0096V20.2267H56.0263V8.17422H55.9666L50.8353 16.7661L45.6444 8.17422H45.5847V20.2267Z" fill="#282B3E"/>
<path d="M17.0644 4.23628V23.4487L21.3007 19.1527V0L17.0644 4.23628Z" fill="#00A758"/>
<path d="M8.53223 23.4487L12.7685 19.1527V0L8.53223 4.23628V23.4487Z" fill="#00A758"/>
<path d="M0 23.4487L4.23628 19.1527V0L0 4.23628V23.4487Z" fill="#00A758"/>
<path d="M138.484 3.52028H146.42V4.5346H139.737V10.9785H144.749V11.9928H139.737V20.2267H138.484V3.52028Z" fill="#282B3E"/>
<path d="M148.21 16.9451V8.59189H149.403V17.3031C149.403 17.8998 149.582 18.4368 149.94 18.9141C150.298 19.3914 150.776 19.6897 151.372 19.6897C152.267 19.6897 153.341 19.0931 154.535 17.9594V8.59189H155.728V20.2864H154.535V19.0931C153.998 19.5704 153.461 19.9284 152.924 20.2267C152.387 20.5251 151.79 20.6444 151.134 20.6444C149.165 20.5847 148.21 19.3914 148.21 16.9451Z" fill="#282B3E"/>
<path d="M160.621 8.59188V9.7852C161.158 9.30787 161.695 8.94988 162.232 8.65155C162.768 8.35322 163.365 8.23389 164.021 8.23389C165.931 8.23389 166.885 9.4272 166.885 11.8735V20.2864H165.692V11.5752C165.692 10.9785 165.513 10.4415 165.155 9.9642C164.797 9.48687 164.32 9.18854 163.723 9.18854C162.828 9.18854 161.754 9.7852 160.561 10.9189V20.2864H159.368V8.59188H160.621Z" fill="#282B3E"/>
<path d="M172.255 19.9881C171.599 19.5704 171.002 18.9737 170.525 18.0788C170.048 17.1838 169.809 16.0501 169.809 14.6181C169.809 13.1862 170.048 11.9332 170.465 10.9785C170.883 10.0239 171.42 9.30788 172.136 8.89022C172.792 8.47256 173.508 8.23389 174.224 8.23389C175.179 8.23389 176.193 8.77089 177.208 9.78521V3.52029L178.401 2.68497V20.2864H177.208V18.9141C176.73 19.4511 176.313 19.8687 175.835 20.1671C175.358 20.4654 174.821 20.5847 174.165 20.5847C173.508 20.5847 172.971 20.4057 172.255 19.9881ZM176.074 18.9141C176.611 18.4368 177.029 17.9594 177.267 17.3628V11.2172C176.969 10.6205 176.551 10.1432 176.074 9.78521C175.597 9.42721 175.06 9.24821 174.463 9.24821C173.329 9.24821 172.434 9.78521 171.897 10.7995C171.36 11.8735 171.062 13.1265 171.062 14.6181C171.062 15.7518 171.241 16.7064 171.599 17.4821C171.957 18.1981 172.375 18.7351 172.912 19.0931C173.449 19.4511 173.926 19.5704 174.463 19.5704C175 19.5704 175.537 19.3317 176.074 18.9141Z" fill="#282B3E"/>
<path d="M189.081 3.52028H190.692L195.346 12.3508H195.406L200.119 3.52028H201.611V20.2267H200.418V5.54892H200.358L195.346 14.9165L190.334 5.54892V20.2267H189.081V3.52028Z" fill="#282B3E"/>
<path d="M206.623 20.1671C206.146 19.8687 205.728 19.5107 205.43 18.9737C205.131 18.4368 204.952 17.7804 204.952 17.0644C204.952 15.8115 205.37 14.8568 206.205 14.2005C207.041 13.5442 208.353 13.0668 210.143 12.8282C210.74 12.7685 211.158 12.5895 211.396 12.4105C211.575 12.2315 211.695 11.8138 211.695 11.2768C211.695 10.5609 211.516 10.0835 211.098 9.72554C210.68 9.36754 210.143 9.18854 209.487 9.18854C208.831 9.18854 208.234 9.36754 207.697 9.72554C207.16 10.0835 206.683 10.5609 206.325 11.0979L205.668 10.2029C206.146 9.54654 206.742 9.06921 207.399 8.71122C208.055 8.35322 208.831 8.17422 209.666 8.17422C210.68 8.17422 211.456 8.47255 211.993 9.00955C212.53 9.54654 212.828 10.4415 212.828 11.6348V20.2267H211.635V18.7351C211.038 19.3317 210.442 19.8091 209.905 20.1074C209.368 20.4057 208.831 20.5847 208.174 20.5847C207.637 20.5847 207.1 20.4654 206.623 20.1671ZM210.143 18.9737C210.68 18.5561 211.217 18.0788 211.695 17.4821V13.6038H211.635L210.263 13.7828C208.831 14.0215 207.757 14.3198 207.1 14.8568C206.444 15.3341 206.086 16.0501 206.086 17.0048C206.086 17.7804 206.325 18.4368 206.742 18.9141C207.16 19.3914 207.757 19.6301 208.532 19.6301C209.069 19.5704 209.547 19.3914 210.143 18.9737Z" fill="#282B3E"/>
<path d="M217.721 8.59188V9.7852C218.258 9.30787 218.795 8.94988 219.332 8.65155C219.869 8.35322 220.465 8.23389 221.122 8.23389C223.031 8.23389 223.986 9.4272 223.986 11.8735V20.2864H222.792V11.5752C222.792 10.9785 222.613 10.4415 222.255 9.9642C221.897 9.48687 221.42 9.18854 220.823 9.18854C219.928 9.18854 218.854 9.7852 217.661 10.9189V20.2864H216.468V8.59188H217.721Z" fill="#282B3E"/>
<path d="M228.699 20.1671C228.222 19.8687 227.804 19.5107 227.506 18.9737C227.208 18.4368 227.029 17.7804 227.029 17.0644C227.029 15.8115 227.446 14.8568 228.282 14.2005C229.117 13.5442 230.43 13.0668 232.22 12.8282C232.816 12.7685 233.234 12.5895 233.473 12.4105C233.652 12.2315 233.771 11.8138 233.771 11.2768C233.771 10.5609 233.592 10.0835 233.174 9.72554C232.757 9.36754 232.22 9.18854 231.563 9.18854C230.907 9.18854 230.31 9.36754 229.773 9.72554C229.236 10.0835 228.759 10.5609 228.401 11.0979L227.745 10.2029C228.222 9.54654 228.819 9.06921 229.475 8.71122C230.131 8.35322 230.907 8.17422 231.742 8.17422C232.757 8.17422 233.532 8.47255 234.069 9.00955C234.606 9.54654 234.905 10.4415 234.905 11.6348V20.2267H233.711V18.7351C233.115 19.3317 232.518 19.8091 231.981 20.1074C231.444 20.4057 230.907 20.5847 230.251 20.5847C229.773 20.5847 229.236 20.4654 228.699 20.1671ZM232.22 18.9737C232.757 18.5561 233.294 18.0788 233.771 17.4821V13.6038H233.711L232.339 13.7828C230.907 14.0215 229.833 14.3198 229.177 14.8568C228.52 15.3341 228.162 16.0501 228.162 17.0048C228.162 17.7804 228.401 18.4368 228.819 18.9141C229.236 19.3914 229.833 19.6301 230.609 19.6301C231.146 19.5704 231.683 19.3914 232.22 18.9737Z" fill="#282B3E"/>
<path d="M247.315 9.12888C246.838 9.12888 246.301 9.30787 245.704 9.66587C246.241 10.3819 246.48 11.2172 246.48 12.2315C246.48 13.0072 246.301 13.7231 245.943 14.3198C245.585 14.9165 245.107 15.3938 244.511 15.7518C243.914 16.1098 243.198 16.2888 242.482 16.2888C241.706 16.2888 240.99 16.1098 240.394 15.8115C239.678 16.3484 239.32 16.8854 239.32 17.3628C239.32 17.8401 240.155 18.1981 241.885 18.3771L243.437 18.5561C244.749 18.6754 245.823 18.9737 246.539 19.3914C247.255 19.8091 247.613 20.4654 247.613 21.3007C247.613 22.315 247.136 23.0907 246.181 23.6277C245.227 24.1647 243.974 24.4033 242.542 24.4033C240.99 24.4033 239.797 24.1647 238.902 23.6873C238.007 23.21 237.59 22.494 237.59 21.599C237.59 21.0024 237.769 20.5251 238.186 20.1074C238.604 19.6897 239.141 19.3914 239.916 19.1527C238.842 18.8544 238.246 18.3174 238.246 17.4821C238.246 17.1241 238.365 16.7661 238.544 16.4678C238.783 16.1694 239.141 15.8115 239.678 15.3341C239.26 14.9761 238.962 14.5585 238.723 14.0215C238.484 13.4845 238.365 12.9475 238.365 12.2912C238.365 11.5155 238.544 10.7995 238.902 10.2029C239.26 9.6062 239.737 9.12888 240.394 8.77088C241.05 8.41289 241.706 8.23389 242.542 8.23389C243.616 8.23389 244.511 8.53222 245.227 9.12888C245.644 8.77088 246.002 8.47255 246.36 8.29355C246.718 8.11456 247.076 7.99522 247.434 7.99522H247.792V9.12888C247.554 9.12888 247.434 9.12888 247.315 9.12888ZM241.229 19.2124C240.274 19.5107 239.618 19.8091 239.26 20.1074C238.902 20.4057 238.723 20.8234 238.723 21.3604C238.723 22.0167 239.081 22.494 239.737 22.852C240.453 23.21 241.408 23.3294 242.721 23.3294C243.854 23.3294 244.749 23.1504 245.465 22.852C246.181 22.494 246.539 22.0167 246.539 21.3007C246.539 20.7637 246.301 20.3461 245.764 20.1074C245.227 19.8091 244.391 19.6301 243.258 19.5107L241.229 19.2124ZM244.57 14.4988C245.107 13.9618 245.346 13.1862 245.346 12.2315C245.346 11.3365 245.107 10.5609 244.63 9.9642C244.153 9.36754 243.437 9.06921 242.542 9.06921C241.647 9.06921 240.871 9.36754 240.334 9.9642C239.797 10.5609 239.499 11.3365 239.499 12.2315C239.499 13.0668 239.797 13.8425 240.334 14.3795C240.871 14.9761 241.587 15.2745 242.482 15.2745C243.317 15.3341 244.033 15.0358 244.57 14.4988Z" fill="#282B3E"/>
<path d="M250.477 19.0931C249.642 18.0788 249.224 16.5274 249.224 14.3795C249.224 12.3508 249.642 10.7995 250.477 9.7852C251.313 8.77088 252.446 8.23389 253.819 8.23389C255.191 8.23389 256.205 8.77088 256.862 9.7852C257.458 10.8592 257.816 12.1718 257.816 13.7828C257.816 14.0811 257.816 14.2601 257.816 14.4391H250.477C250.477 16.2888 250.776 17.6014 251.432 18.4367C252.088 19.2124 252.924 19.6301 253.998 19.6301C254.594 19.6301 255.131 19.4511 255.668 19.0334C256.205 18.6157 256.623 18.1384 256.981 17.5418L257.697 18.3174C257.279 18.9737 256.742 19.5107 256.086 19.9284C255.43 20.3461 254.654 20.5847 253.759 20.5847C252.387 20.5847 251.313 20.1074 250.477 19.0931ZM255.847 10.4415C255.37 9.6062 254.654 9.18854 253.64 9.18854C252.983 9.18854 252.387 9.4272 251.909 9.84486C251.432 10.2625 251.074 10.7995 250.835 11.4558C250.597 12.1122 250.477 12.8282 250.477 13.4845H256.504C256.563 12.2912 256.325 11.2172 255.847 10.4415Z" fill="#282B3E"/>
<path d="M262.053 8.59188V9.7852C262.649 9.24821 263.126 8.89021 263.604 8.65155C264.081 8.41288 264.678 8.23389 265.334 8.23389C266.647 8.23389 267.482 8.83054 267.84 10.0239C268.496 9.4272 269.093 8.94988 269.63 8.71121C270.167 8.41288 270.764 8.29355 271.42 8.29355C272.315 8.29355 272.971 8.59188 273.508 9.12887C273.986 9.66587 274.224 10.6205 274.224 11.9332V20.3461H273.031V11.5752C273.031 10.9785 272.852 10.4415 272.554 9.9642C272.255 9.48687 271.778 9.24821 271.181 9.24821C270.644 9.24821 270.167 9.4272 269.63 9.72553C269.153 10.0835 268.616 10.4415 268.138 10.9189V20.2864H266.945V11.5752C266.945 10.9785 266.766 10.4415 266.468 9.9642C266.169 9.48687 265.692 9.24821 265.095 9.24821C264.558 9.24821 264.081 9.4272 263.604 9.72553C263.126 10.0239 262.59 10.4415 262.053 10.9785V20.3461H260.859V8.59188H262.053Z" fill="#282B3E"/>
<path d="M278.461 19.0931C277.625 18.0788 277.208 16.5274 277.208 14.3795C277.208 12.3508 277.625 10.7995 278.461 9.7852C279.296 8.77088 280.43 8.23389 281.802 8.23389C283.174 8.23389 284.189 8.77088 284.845 9.7852C285.442 10.8592 285.8 12.1718 285.8 13.7828C285.8 14.0811 285.8 14.2601 285.8 14.4391H278.461C278.461 16.2888 278.759 17.6014 279.415 18.4367C280.072 19.2721 280.907 19.6301 281.981 19.6301C282.578 19.6301 283.115 19.4511 283.652 19.0334C284.189 18.6157 284.606 18.1384 284.964 17.5418L285.68 18.3174C285.263 18.9737 284.726 19.5107 284.069 19.9284C283.413 20.3461 282.637 20.5847 281.742 20.5847C280.43 20.5847 279.296 20.1074 278.461 19.0931ZM283.89 10.4415C283.413 9.6062 282.697 9.18854 281.683 9.18854C281.026 9.18854 280.43 9.4272 279.952 9.84486C279.475 10.2625 279.117 10.7995 278.878 11.4558C278.64 12.1122 278.52 12.8282 278.52 13.4845H284.547C284.547 12.2912 284.368 11.2172 283.89 10.4415Z" fill="#282B3E"/>
<path d="M290.095 8.59188V9.7852C290.632 9.30787 291.169 8.94988 291.706 8.65155C292.243 8.35322 292.84 8.23389 293.496 8.23389C295.406 8.23389 296.36 9.4272 296.36 11.8735V20.2864H295.167V11.5752C295.167 10.9785 294.988 10.4415 294.63 9.9642C294.272 9.48687 293.795 9.18854 293.198 9.18854C292.303 9.18854 291.229 9.7852 290.036 10.9189V20.2864H288.842V8.59188H290.095Z" fill="#282B3E"/>
<path d="M301.014 19.8091C300.656 19.2721 300.477 18.4368 300.477 17.2434V9.54654H298.687V8.59189H300.477V5.31027L301.671 4.47495V8.59189H304.356V9.54654H301.671V17.6611C301.671 18.9141 302.088 19.5107 302.924 19.5107C303.162 19.5107 303.401 19.4511 303.64 19.3317C303.878 19.2124 304.117 19.0334 304.356 18.8544L304.415 19.9284C303.819 20.3461 303.222 20.5251 302.625 20.5251C301.909 20.5847 301.313 20.3461 301.014 19.8091Z" fill="#282B3E"/>
</g>
<defs>
<clipPath id="clip0_20_140">
<rect width="304.415" height="50" fill="white"/>
</clipPath>
</defs>
</svg>
