<svg width="20" height="20" viewBox="0 0 20 20" fill="none" xmlns="http://www.w3.org/2000/svg">
<mask id="mask0_21_182" style="mask-type:alpha" maskUnits="userSpaceOnUse" x="2" y="1" width="16" height="18">
<path d="M5 15.067V8.942C5 7.61592 5.52678 6.34415 6.46447 5.40647C7.40215 4.46878 8.67392 3.942 10 3.942C11.3261 3.942 12.5979 4.46878 13.5355 5.40647C14.4732 6.34415 15 7.61592 15 8.942V15.067H5ZM16.667 15.067V8.942C16.6311 7.34511 16.022 5.81441 14.9509 4.62948C13.8798 3.44454 12.4182 2.68444 10.833 2.488V1H9.166V2.488C7.58101 2.68466 6.11964 3.44486 5.04874 4.62977C3.97783 5.81469 3.36885 7.34526 3.333 8.942V15.067H2V16.734H9.166V19H10.833V16.734H18V15.067H16.667Z" fill="#282B3E"/>
</mask>
<g mask="url(#mask0_21_182)">
<rect width="20" height="20" fill="#282B3E"/>
</g>
</svg>
