<svg width="120" height="120" viewBox="0 0 120 120" fill="none" xmlns="http://www.w3.org/2000/svg">
<mask id="mask0_30_288" style="mask-type:alpha" maskUnits="userSpaceOnUse" x="0" y="0" width="120" height="120">
<path d="M74.8 36.4C53.4 36.4 36 53.8 36 75.2C36 96.6 53.4 114 74.8 114C96.2 114 113.6 96.6 113.6 75.2C113.6 53.8 96.2 36.4 74.8 36.4ZM74.8 104.4C58.6 104.4 45.4 91.2 45.4 75C45.4 58.8 58.6 45.6 74.8 45.6C91 45.6 104 59 104 75.2C104 91.4 91 104.4 74.8 104.4Z" fill="black"/>
<path d="M73.8 69.8L66.8 62.6L59.6 69.6L73.6 84L95.4 62.4L88.4 55.4L73.8 69.8Z" fill="black"/>
<path d="M27.6 29.4L27.8 29.2L40.6 6.20001H31.8L23.6 22.2L15.6 6.20001H6.40002L19.2 29.4H8.60002V36.4H19.2V39H8.60002V46H19.2V49.8H27.6V46H38.4V39H27.6V36.4H38.4V29.4H27.6Z" fill="black"/>
</mask>
<g mask="url(#mask0_30_288)">
<rect width="120" height="120" fill="#282B3E"/>
</g>
</svg>
