<svg width="120" height="120" viewBox="0 0 120 120" fill="none" xmlns="http://www.w3.org/2000/svg">
<mask id="mask0_29_257" style="mask-type:alpha" maskUnits="userSpaceOnUse" x="17" y="6" width="84" height="108">
<path d="M89.9997 103.998H29.9997V96.9H89.9997V103.998ZM54.1317 58.2C56.4637 57.8046 58.6601 56.8332 60.5217 55.374L54.2517 47.574C53.3878 48.1661 52.365 48.4829 51.3177 48.4829C50.2704 48.4829 49.2476 48.1661 48.3837 47.574L45.7017 45.414L28.8597 55.2C28.3493 54.2366 28.0578 53.1725 28.0059 52.0835C27.9541 50.9945 28.1432 49.9075 28.5597 48.9L48.1077 29.37C54.9985 29.8727 61.4444 32.9621 66.1527 38.0187C70.8609 43.0752 73.4832 49.7249 73.4937 56.634H83.4957C83.4861 47.7939 80.3442 39.2432 74.628 32.4999C68.9117 25.7566 60.9909 21.257 52.2717 19.8V16.314C61.7985 17.5424 70.5527 22.1958 76.9001 29.4054C83.2475 36.6151 86.7542 45.8883 86.7657 55.494C86.7844 61.7388 85.305 67.8971 82.4517 73.452C80.1609 77.5796 78.8703 82.187 78.6837 86.904H40.6557C43.3978 76.6081 47.9619 66.8866 54.1317 58.2ZM88.6977 86.934C88.882 83.7915 89.7896 80.7341 91.3497 78C94.9257 71.0343 96.7776 63.312 96.7497 55.482C96.7322 42.365 91.5142 29.7901 82.2396 20.5143C72.965 11.2386 60.3907 6.01905 47.2737 6H42.2697V21.066L21.4917 41.844C20.2106 43.2741 19.2391 44.9536 18.6382 46.777C18.0373 48.6005 17.8199 50.5285 17.9997 52.44C18.1079 56.4268 19.6748 60.2354 22.4037 63.144L27.0777 67.824L41.4777 59.424C36.1958 67.8427 32.4838 77.1492 30.5217 86.892H20.0037V114H100.002V86.904L88.6977 86.934Z" fill="#282B3E"/>
</mask>
<g mask="url(#mask0_29_257)">
<rect width="120" height="120" fill="#282B3E"/>
</g>
</svg>
