<svg width="40" height="40" viewBox="0 0 40 40" fill="none" xmlns="http://www.w3.org/2000/svg">
<mask id="mask0_232_4849" style="mask-type:alpha" maskUnits="userSpaceOnUse" x="0" y="0" width="40" height="40">
<path d="M20 2.1333C10.0667 2.1333 2 10.2 2 20.1333C2 24.8666 3.86667 29.4666 7.26667 32.8L9.6 30.4666C4 24.6666 4.13333 15.4 9.93333 9.7333C15.1333 4.66663 23.3333 4.19997 29.1333 8.66663L25.8 12L28.1333 14.3333L31.4667 11C36.0667 16.7333 35.6667 25 30.5333 30.2666L32.9333 32.6C39.8667 25.4666 39.6667 14.0666 32.4667 7.1333C29.2 3.9333 24.6667 2.1333 20 2.1333Z" fill="black"/>
<path d="M21.0666 23.2L26.1333 14.2H22.3333L19.3333 20.0666L16.4666 14.2H12.6L17.5333 23.2H13.6666V25.8H17.5333V26.8666H13.6666V29.4666H17.5333V31.1333H21.0666V29.4666H25V26.8666H21.0666V25.8H25V23.2H21.0666Z" fill="black"/>
</mask>
<g mask="url(#mask0_232_4849)">
<rect width="40" height="40" fill="#282B3E"/>
</g>
</svg>
