<svg width="41" height="40" viewBox="0 0 41 40" fill="none" xmlns="http://www.w3.org/2000/svg">
<mask id="mask0_232_4766" style="mask-type:alpha" maskUnits="userSpaceOnUse" x="0" y="0" width="41" height="40">
<path d="M28.8167 15.7334H38.75V5.86671H35.4167V9.60005C29.6833 1.46671 18.4167 -0.399954 10.2833 5.33338C2.15001 11.0667 0.350013 22.3334 6.08335 30.4667C11.8167 38.6 23.0833 40.4667 31.2167 34.6667C35.95 31.2667 38.75 25.8 38.75 20H35.4167C35.4167 28.1334 28.8833 34.6667 20.75 34.6667C12.6167 34.6667 6.08335 28.1334 6.08335 20C6.08335 11.8667 12.6167 5.33338 20.75 5.33338C25.8833 5.33338 30.6167 8.00005 33.2833 12.4H28.8167V15.7334V15.7334Z" fill="black"/>
<path d="M23.4167 12.4L20.4167 18.3334L17.55 12.4H13.6833L18.6167 21.4H14.8167V24H18.6167V25.1334H14.8167V27.6667H18.6167V29.3334H22.2167V27.6667H26.0834V25.1334H22.2167V24H26.0834V21.4H22.2167L27.2167 12.4H23.4167Z" fill="black"/>
</mask>
<g mask="url(#mask0_232_4766)">
<rect x="0.75" width="40" height="40" fill="#282B3E"/>
</g>
</svg>
