<svg width="40" height="40" viewBox="0 0 40 40" fill="none" xmlns="http://www.w3.org/2000/svg">
<mask id="mask0_232_4806" style="mask-type:alpha" maskUnits="userSpaceOnUse" x="2" y="2" width="36" height="37">
<path fill-rule="evenodd" clip-rule="evenodd" d="M18.27 2V5.372C14.9947 5.76618 11.9476 7.25193 9.61995 9.5897C7.29234 11.9275 5.81987 14.981 5.43996 18.258H2.07996C2.47102 14.0897 4.30059 10.1875 7.25473 7.22099C10.2089 4.25444 14.1034 2.40853 18.27 2ZM34.56 18.258H37.92C37.5241 14.0696 35.6759 10.1516 32.6954 7.18238C29.7149 4.21321 25.7898 2.37992 21.6 2V5.356C24.9012 5.72315 27.9804 7.19901 30.3344 9.54247C32.6884 11.8859 34.178 14.9584 34.56 18.258ZM21.674 29.5184V27.7764C22.7701 27.4018 23.6961 26.6475 24.2847 25.6498C24.8733 24.6522 25.0857 23.4769 24.8836 22.3363C24.6815 21.1957 24.0781 20.165 23.1825 19.4304C22.2869 18.6957 21.1581 18.3056 20 18.3304C19.7015 18.3136 19.4145 18.2098 19.1745 18.0317C18.9344 17.8536 18.7517 17.6091 18.6491 17.3283C18.5464 17.0476 18.5282 16.7429 18.5968 16.452C18.6653 16.161 18.8176 15.8965 19.0348 15.6911C19.252 15.4857 19.5246 15.3485 19.819 15.2963C20.1133 15.2442 20.4165 15.2793 20.691 15.3976C20.9656 15.5158 21.1995 15.7118 21.3639 15.9615C21.5283 16.2111 21.6159 16.5035 21.616 16.8024H24.958C24.9507 15.7935 24.6311 14.8117 24.043 13.9919C23.4549 13.1721 22.6273 12.5546 21.674 12.2244V10.4824H18.332V12.2224C17.2349 12.5958 16.3076 13.3494 15.7178 14.347C15.128 15.3445 14.9145 16.5202 15.116 17.6614C15.3174 18.8027 15.9206 19.8342 16.8163 20.5694C17.7121 21.3047 18.8414 21.6952 20 21.6704C20.2984 21.6872 20.5854 21.7911 20.8255 21.9692C21.0656 22.1473 21.2483 22.3918 21.3509 22.6725C21.4536 22.9533 21.4718 23.2579 21.4032 23.5489C21.3347 23.8398 21.1824 24.1044 20.9652 24.3097C20.748 24.5151 20.4754 24.6523 20.181 24.7045C19.8867 24.7567 19.5835 24.7215 19.309 24.6033C19.0344 24.4851 18.8005 24.289 18.6361 24.0394C18.4717 23.7897 18.3841 23.4973 18.384 23.1984H15.042C15.0493 24.2084 15.3696 25.1912 15.9588 26.0115C16.5481 26.8318 17.3772 27.4491 18.332 27.7784V29.5184H21.674ZM5.43996 21.7422H2.07996C2.47102 25.9104 4.30059 29.8127 7.25473 32.7792C10.2089 35.7457 14.1034 37.5917 18.27 38.0002V34.6282C14.9945 34.2343 11.9472 32.7487 9.61956 30.4109C7.29188 28.073 5.81953 25.0193 5.43996 21.7422ZM21.6 38.0002V34.6442C24.9012 34.277 27.9804 32.8012 30.3344 30.4577C32.6884 28.1143 34.178 25.0418 34.56 21.7422H37.918C37.5222 25.9303 35.6742 29.8481 32.6942 32.8172C29.7141 35.7863 25.7895 37.6198 21.6 38.0002Z" fill="#282B3E"/>
</mask>
<g mask="url(#mask0_232_4806)">
<rect width="40" height="40" fill="#282B3E"/>
</g>
</svg>
