<svg width="41" height="40" viewBox="0 0 41 40" fill="none" xmlns="http://www.w3.org/2000/svg">
<mask id="mask0_232_4838" style="mask-type:alpha" maskUnits="userSpaceOnUse" x="0" y="0" width="41" height="40">
<path d="M10.25 12.4667C10.25 11.1333 11.3167 10 12.7167 10H27.25L24.7834 12.4667L27.1167 14.8L33.5167 8.4L27.1834 2L24.85 4.33333L27.1834 6.66667H12.7167C9.51669 6.66667 6.91669 9.26667 6.91669 12.4667V18.0667H10.25V12.4667Z" fill="black"/>
<path d="M33.5834 21.9333H30.25V27.5333C30.25 28.8667 29.1167 30 27.7834 30H13.25L15.7167 27.5333L13.3834 25.2L6.91669 31.6L13.3167 38L15.65 35.6667L13.3834 33.3333H27.7834C30.9834 33.3333 33.5834 30.7333 33.5834 27.5333V21.9333Z" fill="black"/>
<path d="M24.25 22.8666V20.9333H21.3833L25.1167 14.1333H22.25L20.05 18.6L17.85 14.1333H14.9833L18.65 20.9333H15.7833V22.8666H18.65V23.6666H15.7833V25.6H18.65V26.8H21.3833V25.6H24.25V23.6666H21.3833V22.8666H24.25Z" fill="black"/>
</mask>
<g mask="url(#mask0_232_4838)">
<rect x="0.25" width="40" height="40" fill="#282B3E"/>
</g>
</svg>
