<svg width="18" height="18" viewBox="0 0 18 18" fill="none" xmlns="http://www.w3.org/2000/svg">
<mask id="mask0_20_156" style="mask-type:alpha" maskUnits="userSpaceOnUse" x="0" y="0" width="18" height="18">
<path d="M9.00003 0.899994C7.398 0.899994 5.83195 1.37505 4.49991 2.26509C3.16787 3.15513 2.12967 4.42018 1.5166 5.90026C0.903534 7.38034 0.743127 9.00898 1.05567 10.5802C1.36821 12.1515 2.13966 13.5948 3.27246 14.7276C4.40527 15.8604 5.84855 16.6318 7.4198 16.9444C8.99104 17.2569 10.6197 17.0965 12.0998 16.4834C13.5798 15.8704 14.8449 14.8322 15.7349 13.5001C16.625 12.1681 17.1 10.602 17.1 8.99999C17.0976 6.85247 16.2435 4.79359 14.725 3.27506C13.2064 1.75653 11.1476 0.902376 9.00003 0.899994V0.899994ZM12.8016 14.3856C11.6897 15.1743 10.3599 15.5976 8.99661 15.5968C7.63332 15.596 6.30405 15.1712 5.19303 14.3811V14.1408C5.19303 13.1318 5.59384 12.1642 6.30728 11.4507C7.02073 10.7373 7.98836 10.3365 8.99733 10.3365C10.0063 10.3365 10.9739 10.7373 11.6874 11.4507C12.4008 12.1642 12.8016 13.1318 12.8016 14.1408V14.3856ZM7.56903 7.32779C7.56903 7.03035 7.65723 6.73959 7.82248 6.49227C7.98773 6.24496 8.22261 6.0522 8.49741 5.93837C8.77221 5.82455 9.0746 5.79476 9.36632 5.85279C9.65805 5.91082 9.92602 6.05405 10.1363 6.26438C10.3467 6.4747 10.4899 6.74267 10.5479 7.0344C10.606 7.32613 10.5762 7.62851 10.4624 7.90331C10.3485 8.17811 10.1558 8.41299 9.90845 8.57824C9.66113 8.74349 9.37037 8.83169 9.07293 8.83169C8.67422 8.83122 8.29197 8.67262 8.01004 8.39069C7.7281 8.10875 7.5695 7.72651 7.56903 7.32779V7.32779ZM14.1939 13.0581C14.028 12.2591 13.6792 11.5095 13.175 10.8679C12.6708 10.2263 12.0249 9.71015 11.2878 9.35999C11.6809 8.932 11.9416 8.39929 12.0384 7.82627C12.1352 7.25326 12.0639 6.66448 11.8331 6.13112C11.6024 5.59776 11.2221 5.14267 10.7382 4.82086C10.2543 4.49905 9.68757 4.32432 9.10647 4.31777C8.52538 4.31123 7.95484 4.47316 7.46382 4.78399C6.97281 5.09482 6.58235 5.54123 6.33965 6.06926C6.09696 6.59729 6.01243 7.18431 6.09628 7.75936C6.18013 8.33441 6.42876 8.87285 6.81213 9.30959C6.05101 9.65162 5.38154 10.1687 4.85835 10.8188C4.33515 11.4688 3.97307 12.2334 3.80163 13.05C3.04021 12.0757 2.56793 10.907 2.43868 9.6773C2.30942 8.44755 2.52839 7.20623 3.07061 6.09493C3.61282 4.98363 4.45645 4.04709 5.50527 3.39213C6.55409 2.73718 7.76587 2.39018 9.00239 2.39071C10.2389 2.39125 11.4504 2.7393 12.4986 3.39516C13.5469 4.05102 14.3897 4.98829 14.931 6.10007C15.4722 7.21184 15.6901 8.45334 15.5598 9.68298C15.4295 10.9126 14.9562 12.0809 14.1939 13.0545V13.0581Z" fill="#282B3E"/>
</mask>
<g mask="url(#mask0_20_156)">
<rect width="18" height="18" fill="#282B3E"/>
</g>
</svg>
