<svg width="18" height="18" viewBox="0 0 18 18" fill="none" xmlns="http://www.w3.org/2000/svg">
<mask id="mask0_20_162" style="mask-type:alpha" maskUnits="userSpaceOnUse" x="1" y="0" width="16" height="18">
<path fill-rule="evenodd" clip-rule="evenodd" d="M1.95032 0.899994H11.9358L16.0497 5.00849V17.1H1.95032V0.899994ZM3.45242 15.597H14.5458L14.5476 5.63399L11.3166 2.40299H3.45242V15.597ZM6.9282 9.87376C6.6263 9.38732 6.46609 8.82628 6.4656 8.25376H6.4692C6.46905 7.57043 6.69471 6.90619 7.11109 6.36436C7.52748 5.82253 8.11124 5.43349 8.77159 5.25774C9.43194 5.08198 10.1319 5.12937 10.7625 5.39253C11.3931 5.6557 11.9191 6.11988 12.2587 6.71289C12.5982 7.3059 12.7323 7.99449 12.64 8.67157C12.5478 9.34865 12.2343 9.97627 11.7485 10.4568C11.2627 10.9373 10.6316 11.2439 9.95358 11.3287C9.27553 11.4135 8.58845 11.2719 7.9992 10.9259L6.1245 12.8006L5.0634 11.7404L6.9282 9.87376ZM10.8999 9.14379C11.0759 8.88034 11.1699 8.57061 11.1699 8.25376C11.1694 7.82903 11.0005 7.42184 10.7002 7.12151C10.3998 6.82118 9.99263 6.65224 9.5679 6.65176C9.25106 6.65176 8.94133 6.74572 8.67788 6.92175C8.41443 7.09778 8.2091 7.34798 8.08785 7.64071C7.9666 7.93343 7.93487 8.25554 7.99669 8.5663C8.0585 8.87706 8.21107 9.16251 8.43512 9.38655C8.65916 9.61059 8.94461 9.76317 9.25537 9.82498C9.56613 9.8868 9.88824 9.85507 10.181 9.73382C10.4737 9.61257 10.7239 9.40724 10.8999 9.14379Z" fill="#282B3E"/>
</mask>
<g mask="url(#mask0_20_162)">
<rect width="18" height="18" fill="#282B3E"/>
</g>
</svg>
