<svg width="18" height="18" viewBox="0 0 18 18" fill="none" xmlns="http://www.w3.org/2000/svg">
<mask id="mask0_20_159" style="mask-type:alpha" maskUnits="userSpaceOnUse" x="0" y="0" width="18" height="18">
<g clip-path="url(#clip0_20_159)">
<path d="M14.37 5.67C14.46 6.15 14.52 6.66 14.52 7.14C14.52 7.35 14.52 7.56 14.49 7.77C16.17 9.78 15.93 12.78 13.92 14.46C12.15 15.93 9.59998 15.96 7.82998 14.49C7.58998 14.52 7.37998 14.52 7.13998 14.52C6.65998 14.52 6.17998 14.46 5.72998 14.37C7.67998 17.22 11.58 17.94 14.43 15.99C17.28 14.04 18 10.14 16.05 7.29C15.57 6.66 15 6.12 14.37 5.67Z" fill="black"/>
<path d="M13.44 7.16999C13.44 3.68999 10.62 0.899994 7.17003 0.899994C3.72002 0.899994 0.900024 3.68999 0.900024 7.13999C0.900024 10.59 3.69002 13.41 7.14003 13.41C10.62 13.41 13.41 10.62 13.44 7.16999ZM2.40002 7.16999C2.40002 4.52999 4.53002 2.39999 7.17003 2.39999C9.81003 2.39999 11.94 4.52999 11.94 7.16999C11.94 9.80999 9.81003 11.94 7.20003 11.94C4.53003 11.91 2.40002 9.77999 2.40002 7.16999Z" fill="black"/>
<path d="M7.77001 8.54999H9.06002V7.67999H7.77001L9.45002 4.64999H8.19001L7.17001 6.62999L6.18002 4.64999H4.89001L6.57001 7.67999H5.25001V8.54999H6.57001V8.90999H5.25001V9.77999H6.57001V10.35H7.77001V9.77999H9.09001V8.90999H7.77001V8.54999Z" fill="black"/>
</g>
</mask>
<g mask="url(#mask0_20_159)">
<rect width="18" height="18" fill="#282B3E"/>
</g>
<defs>
<clipPath id="clip0_20_159">
<rect width="18" height="18" fill="white"/>
</clipPath>
</defs>
</svg>
