<svg width="24" height="24" viewBox="0 0 24 24" fill="none" xmlns="http://www.w3.org/2000/svg">
<rect width="24" height="24" fill="white"/>
<path fill-rule="evenodd" clip-rule="evenodd" d="M0 0V24H24V0H0ZM9.36 15.696C8.54772 15.7043 7.73878 15.591 6.96 15.36C6.88967 15.3306 6.81422 15.3155 6.738 15.3155C6.66178 15.3155 6.58633 15.3306 6.516 15.36L5.004 16.248C4.668 16.44 4.476 16.248 4.572 15.924L4.908 14.724C4.9323 14.6491 4.93506 14.5689 4.91596 14.4925C4.89687 14.4161 4.85669 14.3466 4.8 14.292C4.0739 13.7923 3.47742 13.1267 3.06003 12.3503C2.64264 11.574 2.41637 10.7093 2.4 9.828C2.4 6.588 5.556 3.96 9.456 3.96C12.984 3.96 15.9 6.108 16.44 8.904H15.96C12.36 8.904 9.504 11.304 9.504 14.244C9.49767 14.7384 9.57892 15.23 9.744 15.696H9.36ZM19.692 18C19.6387 18.0358 19.5982 18.0877 19.5766 18.1482C19.555 18.2087 19.5534 18.2745 19.572 18.336L19.848 19.38C19.932 19.704 19.764 19.824 19.488 19.656L18.204 18.924C18.1533 18.9004 18.098 18.8882 18.042 18.8882C17.986 18.8882 17.9307 18.9004 17.88 18.924C17.2289 19.1139 16.5542 19.2109 15.876 19.212C12.636 19.212 10.008 17.016 10.008 14.316C10.008 11.616 12.636 9.408 15.876 9.408C19.116 9.408 21.756 11.604 21.756 14.316C21.7305 15.0501 21.5299 15.7675 21.1708 16.4083C20.8118 17.0492 20.3048 17.5949 19.692 18ZM6.98405 8.87981C7.50099 8.87981 7.92005 8.46075 7.92005 7.94381C7.92005 7.42687 7.50099 7.00781 6.98405 7.00781C6.46711 7.00781 6.04805 7.42687 6.04805 7.94381C6.04805 8.46075 6.46711 8.87981 6.98405 8.87981ZM13.9199 11.904C13.7604 11.9016 13.6038 11.9467 13.47 12.0336C13.3362 12.1205 13.2313 12.2452 13.1686 12.3919C13.1059 12.5386 13.0883 12.7006 13.1179 12.8574C13.1476 13.0141 13.2232 13.1585 13.3351 13.2721C13.4471 13.3858 13.5903 13.4635 13.7466 13.4956C13.9029 13.5276 14.0651 13.5124 14.2127 13.4519C14.3604 13.3914 14.4866 13.2884 14.5755 13.1559C14.6644 13.0234 14.7119 12.8675 14.7119 12.708C14.7135 12.603 14.6942 12.4987 14.6551 12.4012C14.616 12.3037 14.5579 12.215 14.4842 12.1402C14.4105 12.0654 14.3227 12.006 14.2258 11.9654C14.1289 11.9249 14.0249 11.904 13.9199 11.904ZM12.3615 8.60566C12.186 8.7812 11.9479 8.87981 11.6997 8.87981C11.4514 8.87981 11.2134 8.7812 11.0378 8.60566C10.8623 8.43013 10.7637 8.19205 10.7637 7.94381C10.7637 7.69557 10.8623 7.45749 11.0378 7.28196C11.2134 7.10643 11.4514 7.00781 11.6997 7.00781C11.9479 7.00781 12.186 7.10643 12.3615 7.28196C12.5371 7.45749 12.6357 7.69557 12.6357 7.94381C12.6357 8.19205 12.5371 8.43013 12.3615 8.60566ZM17.3612 12.0394C17.4934 11.9511 17.6489 11.9039 17.8079 11.9039C18.0211 11.9039 18.2256 11.9886 18.3764 12.1394C18.5272 12.2902 18.6119 12.4947 18.6119 12.7079C18.6119 12.8669 18.5648 13.0224 18.4764 13.1546C18.3881 13.2868 18.2625 13.3899 18.1156 13.4507C17.9687 13.5116 17.807 13.5275 17.6511 13.4965C17.4951 13.4654 17.3518 13.3889 17.2394 13.2764C17.127 13.164 17.0504 13.0207 17.0194 12.8648C16.9883 12.7088 17.0043 12.5471 17.0651 12.4002C17.126 12.2533 17.229 12.1277 17.3612 12.0394Z" fill="#00BC0B"/>
</svg>
