<svg width="24" height="24" viewBox="0 0 24 24" fill="none" xmlns="http://www.w3.org/2000/svg">
<path d="M0 0V24H24V0H0Z" fill="#F3EBA1" fill-opacity="0.94"/>
<g clip-path="url(#clip0_159_871)">
<path d="M15.0772 16.7748C15.5223 16.2708 15.9674 15.5065 15.9674 14.6078C15.959 11.8446 12.4903 10.8283 9.74382 11.0551C8.24881 11.1727 7.24094 11.4918 6.19107 12.1133C5.33438 12.6173 4.3265 13.432 4.08293 14.6666C3.5202 17.4383 6.53543 18.7401 8.74435 18.8913C11.306 19.0593 13.8593 18.1522 15.0772 16.7748Z" fill="white"/>
<path d="M21.8551 8.7707C21.9391 9.87096 21.7543 11.2064 21.0236 11.2652C19.831 11.366 20.4525 10.0557 20.4693 9.26623C20.5113 6.97332 18.5543 5.37752 16.6394 5.37752C16.0934 5.37752 14.8336 5.74707 15.0352 4.60482C15.1192 4.10088 15.5475 4.10928 15.9758 4.05048C19.1926 3.62214 21.6283 5.84786 21.8551 8.7707Z" fill="#E99315"/>
<path d="M16.5722 11.4414C17.958 12.1973 19.6294 12.5752 19.3438 14.8345C19.2766 15.3721 18.9491 16.0944 18.6215 16.5563C16.2782 19.8319 9.20629 21.2177 4.78844 18.7233C3.31023 17.8834 1.77322 16.6571 2.01679 14.2214C2.21837 12.1217 3.62939 10.4923 5.01522 9.10645C6.33385 7.78782 7.72808 6.74635 9.62624 6.27601C11.684 5.75527 12.2887 7.47706 11.7344 9.16525C12.927 9.08126 15.4551 7.75422 16.5638 9.05606C17.0677 9.62719 16.8829 10.6519 16.5722 11.4414ZM15.0772 16.7747C15.5223 16.2708 15.9674 15.5065 15.9674 14.6078C15.959 11.8445 12.4903 10.8282 9.74382 11.055C8.24881 11.1726 7.24094 11.4918 6.19107 12.1133C5.33438 12.6172 4.3265 13.4319 4.08293 14.6666C3.5202 17.4382 6.53543 18.74 8.74435 18.8912C11.306 19.0592 13.8593 18.1521 15.0772 16.7747Z" fill="#D52A2C"/>
<path d="M19.1338 8.77067C19.2514 9.61896 19.0079 10.3497 18.5291 10.3749C17.7228 10.4337 18.0252 9.82053 17.9748 9.09822C17.9412 8.65308 17.5716 8.14074 17.2525 7.98956C16.6226 7.6956 15.6483 8.20794 15.6483 7.32605C15.6483 6.67093 16.2194 6.73812 16.5386 6.72132C17.9244 6.61214 18.9659 7.57801 19.1338 8.77067Z" fill="#E99315"/>
<path d="M12.6331 14.3308C13.8173 17.9087 7.65249 19.5717 6.51863 16.4977C5.76273 14.44 7.5769 12.8106 9.45827 12.609C11.0793 12.441 12.2803 13.2641 12.6331 14.3308ZM9.80262 14.9439C10.0546 15.3722 10.6341 15.0615 10.5753 14.7171C10.5165 14.3224 9.79422 14.3812 9.80262 14.9439ZM8.80315 16.8253C9.84462 16.5733 9.979 14.6247 8.4084 14.9943C7.09816 15.3051 7.35013 17.1696 8.80315 16.8253Z" fill="black"/>
</g>
<defs>
<clipPath id="clip0_159_871">
<rect width="19.8719" height="16" fill="white" transform="translate(2 4)"/>
</clipPath>
</defs>
</svg>
